<?xml version="1.0" encoding="UTF-8"?>
<svg id="Capa_1" xmlns="http://www.w3.org/2000/svg" version="1.1" xmlns:xlink="http://www.w3.org/1999/xlink" viewBox="91.76 135.35 658.09 324.69">
  <!-- Generator: Adobe Illustrator 30.1.0, SVG Export Plug-In . SVG Version: 2.1.1 Build 136)  -->
  <defs>
    <style>
      .st0 {
        fill: url(#Degradado_sin_nombre_6);
      }

      .st1 {
        clip-path: url(#clippath-6);
      }

      .st2 {
        clip-path: url(#clippath-7);
      }

      .st3 {
        clip-path: url(#clippath-4);
      }

      .st4 {
        clip-path: url(#clippath-9);
      }

      .st5 {
        clip-path: url(#clippath-10);
      }

      .st6 {
        fill: url(#Degradado_sin_nombre_61);
      }

      .st7 {
        fill: none;
      }

      .st8 {
        clip-path: url(#clippath-1);
      }

      .st9 {
        clip-path: url(#clippath-5);
      }

      .st10 {
        fill: url(#Degradado_sin_nombre_62);
      }

      .st11 {
        clip-path: url(#clippath-8);
      }

      .st12 {
        clip-path: url(#clippath-3);
      }

      .st13 {
        fill: url(#Degradado_sin_nombre_7);
      }

      .st14 {
        fill: url(#Degradado_sin_nombre_3);
      }

      .st15 {
        fill: #010101;
      }

      .st16 {
        clip-path: url(#clippath-2);
      }

      .st17 {
        fill: url(#Degradado_sin_nombre_8);
      }

      .st18 {
        clip-path: url(#clippath);
      }
    </style>
    <clipPath id="clippath">
      <path class="st7" d="M108.81,199.78v16.59c0,9.16,7.07,16.62,15.76,16.62h97.33c8.7,0,15.77-7.45,15.77-16.62s-7.07-16.59-15.77-16.59h-113.1Z"/>
    </clipPath>
    <linearGradient id="Degradado_sin_nombre_8" data-name="Degradado sin nombre 8" x1="123.54" y1="721.5" x2="124.54" y2="721.5" gradientTransform="translate(-194678.29 -33212.67) rotate(90) scale(270.07 -270.07)" gradientUnits="userSpaceOnUse">
      <stop offset="0" stop-color="#04a29a"/>
      <stop offset=".2" stop-color="#04a29a"/>
      <stop offset=".42" stop-color="#079c9d"/>
      <stop offset=".7" stop-color="#128ba8"/>
      <stop offset="1" stop-color="#2273b9"/>
    </linearGradient>
    <clipPath id="clippath-1">
      <path class="st7" d="M108.81,254v16.6c0,9.14,7.07,16.59,15.76,16.59h97.33c8.7,0,15.77-7.44,15.77-16.59s-7.07-16.6-15.77-16.6h-113.1Z"/>
    </clipPath>
    <linearGradient id="Degradado_sin_nombre_7" data-name="Degradado sin nombre 7" x1="123.54" y1="721.5" x2="124.54" y2="721.5" gradientTransform="translate(-194663.04 -33189.47) rotate(90) scale(270.04 -270.04)" gradientUnits="userSpaceOnUse">
      <stop offset="0" stop-color="#04a29a"/>
      <stop offset=".21" stop-color="#04a29a"/>
      <stop offset=".42" stop-color="#079c9d"/>
      <stop offset=".7" stop-color="#128ba8"/>
      <stop offset="1" stop-color="#2273b9"/>
    </linearGradient>
    <clipPath id="clippath-2">
      <path class="st7" d="M267.92,254c-8.73,0-15.83,7.5-15.83,16.71s7.1,16.72,15.83,16.72h39.8v-16.72c0-9.21-7.12-16.71-15.87-16.71h-23.93Z"/>
    </clipPath>
    <linearGradient id="Degradado_sin_nombre_3" data-name="Degradado sin nombre 3" x1="123.57" y1="721.37" x2="124.57" y2="721.37" gradientTransform="translate(-202554.02 -34655.1) rotate(90) scale(281.18 -281.18)" gradientUnits="userSpaceOnUse">
      <stop offset="0" stop-color="#04a29a"/>
      <stop offset=".21" stop-color="#04a29a"/>
      <stop offset=".42" stop-color="#079c9d"/>
      <stop offset=".7" stop-color="#128ba8"/>
      <stop offset="1" stop-color="#2273b9"/>
      <stop offset="1" stop-color="#2273b9"/>
    </linearGradient>
    <clipPath id="clippath-3">
      <path class="st7" d="M108.81,324.39c-.1,9.21,6.92,16.77,15.66,16.87l23.91.26c8.72.1,15.9-7.31,16-16.52.1-9.2-6.91-16.77-15.64-16.86l-39.75-.44-.18,16.7Z"/>
    </clipPath>
    <linearGradient id="Degradado_sin_nombre_6" data-name="Degradado sin nombre 6" x1="123.57" y1="721.37" x2="124.57" y2="721.37" gradientTransform="translate(-202464.95 -34488.53) rotate(90) scale(280.86 -280.86)" gradientUnits="userSpaceOnUse">
      <stop offset="0" stop-color="#04a29a"/>
      <stop offset=".27" stop-color="#079c9d"/>
      <stop offset=".63" stop-color="#128ba8"/>
      <stop offset="1" stop-color="#2273b9"/>
    </linearGradient>
    <clipPath id="clippath-4">
      <path class="st7" d="M194.63,308.2c-8.7,0-15.77,7.45-15.77,16.61s7.08,16.59,15.77,16.59h113.09v-16.59c0-9.16-7.07-16.61-15.75-16.61h-97.34Z"/>
    </clipPath>
    <linearGradient id="Degradado_sin_nombre_61" data-name="Degradado sin nombre 6" x1="123.54" y1="721.5" x2="124.54" y2="721.5" gradientTransform="translate(-194587.75 -33215.56) rotate(90) scale(270.04 -270.04)" xlink:href="#Degradado_sin_nombre_6"/>
    <clipPath id="clippath-5">
      <path class="st7" d="M194.63,362.41c-8.7,0-15.77,7.45-15.77,16.61,0,6.98,4.12,12.96,9.93,15.41h118.93v-15.41c0-9.16-7.07-16.61-15.75-16.61h-97.34Z"/>
    </clipPath>
    <linearGradient id="Degradado_sin_nombre_62" data-name="Degradado sin nombre 6" x1="123.54" y1="721.5" x2="124.54" y2="721.5" gradientTransform="translate(-194588.16 -33195.18) rotate(90) scale(270.04 -270.04)" xlink:href="#Degradado_sin_nombre_6"/>
    <clipPath id="clippath-6">
      <rect class="st7" x="91.76" y="135.35" width="658.09" height="324.69"/>
    </clipPath>
    <clipPath id="clippath-7">
      <rect class="st7" x="91.76" y="135.35" width="658.09" height="324.69"/>
    </clipPath>
    <clipPath id="clippath-8">
      <rect class="st7" x="91.76" y="135.35" width="658.09" height="324.69"/>
    </clipPath>
    <clipPath id="clippath-9">
      <rect class="st7" x="91.76" y="135.35" width="658.09" height="324.69"/>
    </clipPath>
    <clipPath id="clippath-10">
      <rect class="st7" x="91.76" y="135.35" width="658.09" height="324.69"/>
    </clipPath>
  </defs>
  <g class="st18">
    <rect class="st17" x="115.94" y="159.09" width="114.61" height="114.61" transform="translate(-102.27 185.88) rotate(-45)"/>
  </g>
  <g class="st8">
    <rect class="st13" x="115.95" y="213.3" width="114.59" height="114.59" transform="translate(-140.6 201.76) rotate(-45)"/>
  </g>
  <g class="st16">
    <rect class="st14" x="248.42" y="239.23" width="62.98" height="62.98" transform="translate(-109.44 277.21) rotate(-45)"/>
  </g>
  <g class="st12">
    <rect class="st0" x="104.81" y="293.03" width="63.58" height="63.26" transform="translate(-188.15 188.27) rotate(-44.4)"/>
  </g>
  <g class="st3">
    <rect class="st6" x="185.99" y="267.5" width="114.6" height="114.6" transform="translate(-158.41 267.16) rotate(-45)"/>
  </g>
  <g class="st9">
    <rect class="st10" x="186.41" y="321.53" width="113.76" height="113.76" transform="translate(-196.32 282.87) rotate(-45)"/>
  </g>
  <g class="st1">
    <path class="st15" d="M341.77,199.64h102.58c20.47,0,21.18,34.53,1.08,34.53h-64.25v19.71h67.24s7.11,32.9-27.52,32.9h-39.72v55.04h-39.4v-142.19Z"/>
    <path class="st15" d="M562.57,319.28c-6.77,7.85-14.09,13.91-21.94,18.18-7.85,4.27-16.59,6.4-26.2,6.4-6.24,0-12.02-.98-17.37-2.94-5.35-1.96-9.95-4.67-13.81-8.13-3.86-3.45-6.91-7.58-9.14-12.39-2.23-4.81-3.35-10.12-3.35-15.95v-.4c0-9.61,3.22-17.88,9.65-24.78,6.43-6.91,15.47-12.52,27.12-16.86-5.42-5.96-9.41-11.38-11.98-16.25-2.58-4.88-3.86-10.29-3.86-16.25v-.41c0-4.6.88-8.87,2.64-12.8,1.76-3.93,4.2-7.34,7.31-10.26,3.11-2.91,6.87-5.18,11.27-6.81s9.17-2.43,14.32-2.43c4.6,0,8.9.81,12.9,2.43,4,1.62,7.45,3.83,10.36,6.6,2.91,2.78,5.21,6.06,6.91,9.85,1.69,3.79,2.54,7.79,2.54,11.98v.41c0,8.94-3.08,16.35-9.24,22.24-6.17,5.89-14.73,10.73-25.7,14.52l37.38,38.39c3.52-4.87,6.8-10.22,9.85-16.05,3.05-5.82,5.92-11.98,8.63-18.48l9.55,3.86c-3.25,7.31-6.6,14.15-10.06,20.51-3.45,6.37-7.14,12.12-11.07,17.27l26.2,27.02-8.33,6.91-24.58-25.39ZM514.64,334.72c7.99,0,15.37-2,22.14-5.99,6.77-3.99,13.13-9.44,19.09-16.35l-42.05-43.47c-11.38,3.93-19.64,8.97-24.78,15.13-5.15,6.16-7.72,12.69-7.72,19.6v.41c0,4.34.81,8.36,2.44,12.08,1.62,3.73,3.93,6.98,6.9,9.75,2.98,2.78,6.5,4.94,10.56,6.5,4.06,1.56,8.53,2.34,13.41,2.34M518.7,258.75c20.44-6.5,30.67-16.45,30.67-29.86v-.41c0-6.36-2.13-11.68-6.4-15.94-4.27-4.27-9.65-6.4-16.15-6.4-7.31,0-13.24,2.2-17.77,6.6-4.54,4.4-6.81,9.85-6.81,16.35v.41c0,2.3.27,4.47.81,6.5.54,2.03,1.46,4.16,2.74,6.4,1.29,2.23,2.98,4.67,5.08,7.31,2.1,2.64,4.7,5.65,7.82,9.04"/>
    <path class="st15" d="M614.78,199.64h54.84c12.73,0,24.07,1.72,34.02,5.18,9.96,3.45,18.35,8.3,25.19,14.52,6.84,6.23,12.05,13.65,15.64,22.24,3.59,8.6,5.38,18.05,5.38,28.34v.41c0,10.29-1.83,19.8-5.48,28.54-3.66,8.73-8.94,16.29-15.85,22.65-6.91,6.37-15.41,11.34-25.49,14.93-10.09,3.59-21.5,5.38-34.23,5.38,0,0-54.03,2.85-54.03-22.36v-119.82ZM670.29,306.89c11.82,0,21.33-3.11,28.54-9.34,7.2-6.23,10.81-15.1,10.81-26.61v-.41c0-11.38-3.61-20.21-10.81-26.51-7.21-6.3-16.72-9.45-28.54-9.45h-16.11v63.35c0,9.57,16.11,8.97,16.11,8.97"/>
  </g>
  <rect class="st15" x="341.53" y="363.01" width="2.33" height="32.04"/>
  <polygon class="st15" points="353.49 363.01 355.68 363.01 377.32 390.89 377.32 363.01 379.56 363.01 379.56 395.05 377.81 395.05 355.73 366.58 355.73 395.05 353.49 395.05 353.49 363.01"/>
  <g class="st2">
    <path class="st15" d="M400.29,390.38l1.52-1.78c3.45,3.25,6.63,4.76,11.24,4.76s7.93-2.7,7.93-6.36v-.09c0-3.39-1.75-5.36-8.87-6.82-7.53-1.56-10.57-4.17-10.57-9.02v-.09c0-4.76,4.25-8.42,10.08-8.42,4.57,0,7.57,1.28,10.75,3.89l-1.48,1.88c-2.96-2.61-5.91-3.62-9.36-3.62-4.61,0-7.66,2.7-7.66,6.04v.09c0,3.39,1.7,5.45,9.14,7,7.26,1.51,10.3,4.17,10.3,8.83v.09c0,5.17-4.34,8.74-10.39,8.74-5.02,0-8.87-1.69-12.63-5.13"/>
  </g>
  <polygon class="st15" points="430.97 363.01 433.3 363.01 433.3 377.84 453.37 377.84 453.37 363.01 455.7 363.01 455.7 395.05 453.37 395.05 453.37 380.04 433.3 380.04 433.3 395.05 430.97 395.05 430.97 363.01"/>
  <g class="st11">
    <path class="st15" d="M492.74,379.12v-.09c0-7.92-5.65-14.42-13.39-14.42s-13.3,6.41-13.3,14.33v.09c0,7.92,5.65,14.42,13.39,14.42s13.3-6.41,13.3-14.33M463.62,379.12v-.09c0-8.74,6.31-16.57,15.81-16.57s15.72,7.74,15.72,16.48v.09c0,8.74-6.32,16.57-15.81,16.57s-15.72-7.74-15.72-16.48"/>
  </g>
  <polygon class="st15" points="500.66 363.01 503.26 363.01 513.11 391.53 522.3 362.92 524.09 362.92 533.27 391.53 543.13 363.01 545.54 363.01 534.17 395.28 532.29 395.28 523.1 367.45 513.92 395.28 512.04 395.28 500.66 363.01"/>
  <polygon class="st15" points="552.44 363.01 574.74 363.01 574.74 365.21 554.77 365.21 554.77 377.79 572.73 377.79 572.73 379.99 554.77 379.99 554.77 392.86 574.97 392.86 574.97 395.05 552.44 395.05 552.44 363.01"/>
  <g class="st4">
    <path class="st15" d="M595.35,379.63c5.24,0,9.14-2.7,9.14-7.32v-.09c0-4.3-3.31-7-9-7h-10.71v14.42h10.57ZM582.45,363.01h13.17c3.85,0,6.94,1.24,8.83,3.16,1.48,1.51,2.37,3.66,2.37,5.95v.09c0,5.36-3.9,8.42-9.18,9.15l10.35,13.69h-2.96l-9.99-13.28h-10.26v13.28h-2.33v-32.04Z"/>
  </g>
  <polygon class="st15" points="636.95 365.21 626.02 365.21 626.02 363.01 650.21 363.01 650.21 365.21 639.28 365.21 639.28 395.05 636.95 395.05 636.95 365.21"/>
  <g class="st5">
    <path class="st15" d="M670.18,379.63c5.24,0,9.14-2.7,9.14-7.32v-.09c0-4.3-3.31-7-9-7h-10.71v14.42h10.57ZM657.28,363.01h13.17c3.85,0,6.94,1.24,8.83,3.16,1.48,1.51,2.37,3.66,2.37,5.95v.09c0,5.36-3.9,8.42-9.18,9.15l10.35,13.69h-2.96l-9.99-13.28h-10.26v13.28h-2.33v-32.04Z"/>
  </g>
  <path class="st15" d="M710.9,383.93l-8.24-18.54-8.29,18.54h16.53ZM701.58,362.78h2.24l14.6,32.27h-2.55l-3.98-8.97h-18.5l-3.98,8.97h-2.42l14.6-32.27Z"/>
  <polygon class="st15" points="730.7 382.37 717.26 363.01 720.17 363.01 731.9 380.22 743.69 363.01 746.46 363.01 733.02 382.33 733.02 395.05 730.7 395.05 730.7 382.37"/>
</svg>
